<?xml version="1.0" encoding="utf-8"?>
<!-- Generator: Adobe Illustrator 22.1.0, SVG Export Plug-In . SVG Version: 6.00 Build 0)  -->
<svg version="1.1" id="Layer_1" xmlns="http://www.w3.org/2000/svg" xmlns:xlink="http://www.w3.org/1999/xlink" x="0px" y="0px"
	 viewBox="0 0 576 144" style="enable-background:new 0 0 576 144;" xml:space="preserve">
<style type="text/css">
	.st0{fill:#4CC4D6;}
	.st1{fill:#FFFFFF;}
</style>
<g>
	<path class="st0" d="M173.4,73.4l-76.1-34l-0.1,0.1v15.3l0.1,0l61.6,26.2v0.3l-61.6,26.3l-0.1,0v15.3l0.1,0.1l76.1-34.2
		c2.9-1.2,4.3-3.3,4.3-6.6v-1.9C177.8,76.7,176.4,74.8,173.4,73.4z"/>
	<g>
		<g>
			<path class="st1" d="M220.1,53.9c0-3.2,1.7-4.8,4.8-4.8h4c3.2,0,4.8,1.6,4.8,4.8v8.4c0,3-0.4,5.5-0.4,5.5h0.3
				c3.2-9.6,11.4-19.2,22.3-19.2c3.3,0,4.6,1.6,4.6,4.8v4c0,3.2-1.9,4.8-5.2,4.8c-14.3,0-21.2,15.4-21.2,29.8v25.3
				c0,3.2-1.6,4.8-4.8,4.8h-4.5c-3,0-4.8-1.6-4.8-4.8V53.9z"/>
		</g>
		<g>
			<path class="st1" d="M299.5,47.5c20.2,0,31.4,14.4,31.4,34.7c0,2.6-2,4.9-4.9,4.9h-48.7c0.9,15.8,12.2,24.6,25.2,24.6
				c7.9,0,14.1-3.3,17.4-5.8c2.7-1.4,4.9-1.2,6.5,1.6l1.3,2.2c1.4,2.4,1,4.9-1.4,6.3c-4.3,3-13,7.8-24.6,7.8
				c-22.9,0-38.6-16.6-38.6-38.2C263,62.4,278.7,47.5,299.5,47.5z M316.9,77.8c-0.4-12.8-8.1-19.4-17.7-19.4
				c-10.7,0-19.3,7.2-21.3,19.4H316.9z"/>
		</g>
		<g>
			<path class="st1" d="M347.9,61.3h-4.6c-3,0-4.8-1.7-4.8-4.8v-1.9c0-3,1.7-4.8,4.8-4.8h4.6v-3.5c0-23,18.9-26.8,26.4-26.8h1.7
				c3.2,0,4.8,1.7,4.8,4.8v2.7c0,3.2-1.7,4.5-5,4.8c-5.3,0.3-13.8,1.6-13.8,15.1v2.9h12.5c3,0,4.8,1.7,4.8,4.8v1.9
				c0,3-1.7,4.8-4.8,4.8h-12.5v56c0,3.2-1.6,4.8-4.8,4.8h-4.5c-3,0-4.8-1.6-4.8-4.8V61.3z M390.9,25.1c0-3.2,1.6-4.8,4.8-4.8h4.5
				c3,0,4.8,1.6,4.8,4.8v75.3c0,8.2,3.6,9.4,6.6,9.6c2.2,0.3,3.7,1.4,3.7,4.2v3.5c0,3-1.3,4.9-4.9,4.9c-7.8,0-19.4-2.2-19.4-20.4
				V25.1z"/>
		</g>
		<g>
			<path class="st1" d="M459,47.5c20.2,0,31.4,14.4,31.4,34.7c0,2.6-2,4.9-4.9,4.9h-48.7c0.9,15.8,12.2,24.6,25.2,24.6
				c7.9,0,14.1-3.3,17.4-5.8c2.7-1.4,4.9-1.2,6.5,1.6l1.3,2.2c1.4,2.4,1,4.9-1.4,6.3c-4.3,3-13,7.8-24.6,7.8
				c-22.9,0-38.6-16.6-38.6-38.2C422.6,62.4,438.3,47.5,459,47.5z M476.4,77.8c-0.4-12.8-8.1-19.4-17.7-19.4
				c-10.7,0-19.3,7.2-21.3,19.4H476.4z"/>
		</g>
		<g>
			<path class="st1" d="M520.4,84.6l-19.9-29.7c-2-3.3-0.7-5.8,3.2-5.8h5.5c2.6,0,4.3,1,5.5,3.3l11.8,18.9c1,1.9,2.3,4.3,2.3,4.3
				h0.3c0,0,1.4-2.4,2.4-4.3l11.7-18.9c1.3-2.3,3-3.3,5.6-3.3h5.3c3.9,0,5.3,2.4,3.2,5.8l-19.7,29.7l21.2,31.7
				c2.2,3.3,0.7,5.8-3.2,5.8h-5.2c-2.6,0-4.3-1-5.6-3.3l-13.4-21c-1.2-1.7-2.3-4-2.3-4h-0.3c0,0-1,2.3-2.2,4l-13.4,21
				c-1.3,2.3-3,3.3-5.6,3.3h-5.2c-3.9,0-5.3-2.4-3.2-5.8L520.4,84.6z"/>
		</g>
	</g>
	<g>
		<path class="st1" d="M35.4,81.1v-0.3l61.9-26.1V39.4L21,73.4c-3.1,1.4-4.3,3.3-4.3,6.7V82c0,3.3,1.2,5.4,4.3,6.6l76.2,34.1v-15.3
			L35.4,81.1z"/>
	</g>
</g>
</svg>
